<svg width="49" height="49" viewBox="0 0 49 49" fill="none" xmlns="http://www.w3.org/2000/svg">
<g id="&#240;&#159;&#166;&#134; icon &#34;person&#34;">
<path id="Vector" d="M16.5 4.25C18.7687 4.25 20.625 6.1625 20.625 8.5C20.625 10.8375 18.7687 12.75 16.5 12.75C14.2312 12.75 12.375 10.8375 12.375 8.5C12.375 6.1625 14.2312 4.25 16.5 4.25ZM16.5 25.5C22.0688 25.5 28.4625 28.2413 28.875 29.75H4.125C4.59937 28.22 10.9519 25.5 16.5 25.5ZM16.5 0C11.9419 0 8.25 3.80375 8.25 8.5C8.25 13.1962 11.9419 17 16.5 17C21.0581 17 24.75 13.1962 24.75 8.5C24.75 3.80375 21.0581 0 16.5 0ZM16.5 21.25C10.9931 21.25 0 24.0975 0 29.75V34H33V29.75C33 24.0975 22.0069 21.25 16.5 21.25Z" fill="#1D4E41"/>
</g>
</svg>
